<svg width="114" height="32" viewBox="0 0 114 32" fill="none" xmlns="http://www.w3.org/2000/svg">
<path fill-rule="evenodd" clip-rule="evenodd" d="M39.1771 32H44.7771L22.4 0L14.2629 11.6322L10.0571 4.90378L7.15429 9.05488L19.2 27.8945L8.50286 27.8489L11.5429 23.4697L8.89143 19.3186L2.92571 27.8261H2.90286L0 32H5.6H5.62286H26.9943L16.8914 15.8289L22.4 7.91447L39.1771 32Z" fill="#242A56"/>
<path d="M50.0497 14.1714H53.3649C56.3089 14.1714 58.0369 12.3154 58.0369 9.64023C58.0369 6.95223 56.1937 5.08343 53.3265 5.08343H50.0497V14.1714ZM52.4049 12.0082V7.24663H53.3777C54.5681 7.24663 55.4897 8.28343 55.4897 9.64023C55.4897 10.9458 54.5809 12.0082 53.1985 12.0082H52.4049Z" fill="#242A56"/>
<path d="M61.7109 14.1714H64.2197V5.08343H61.7109V14.1714Z" fill="#242A56"/>
<path d="M72.6366 14.2866C74.0446 14.2866 75.4654 13.8002 76.2846 13.1858V8.96183H72.4446V10.9202H73.9934V11.765C73.507 11.9826 73.1102 12.0594 72.6366 12.0594C71.2286 12.0594 70.435 10.9458 70.435 9.64023C70.435 8.09143 71.4206 7.23383 72.5342 7.23383C73.4814 7.23383 74.147 7.68183 74.5566 8.07863L76.2846 6.63223C75.363 5.53143 73.8654 4.94263 72.5342 4.94263C69.5774 4.94263 67.8878 7.01623 67.8878 9.64023C67.8878 12.6354 69.9998 14.2866 72.6366 14.2866Z" fill="#242A56"/>
<path d="M80.0809 14.1714H82.5897V5.08343H80.0809V14.1714Z" fill="#242A56"/>
<path d="M88.3698 14.1714H90.8658V7.24663H93.1314V5.08343H86.1042V7.24663H88.3698V14.1714Z" fill="#242A56"/>
<path d="M94.9582 14.1714H97.5054L97.9662 12.6994H100.885L101.345 14.1714H103.88L100.59 5.08343H98.2606L94.9582 14.1714ZM98.5934 10.6642L99.4126 8.04023H99.4382L100.257 10.6642H98.5934Z" fill="#242A56"/>
<path d="M107.097 14.1714H113.152V12.0082H109.606V5.08343H107.097V14.1714Z" fill="#242A56"/>
<path d="M49.3457 26.9714H51.8929L52.3537 25.4994H55.2721L55.7329 26.9714H58.2673L54.9777 17.8834H52.6481L49.3457 26.9714ZM52.9809 23.4642L53.8001 20.8402H53.8257L54.6449 23.4642H52.9809Z" fill="#242A56"/>
<path d="M65.4141 27.0866C66.8221 27.0866 68.2429 26.6002 69.0621 25.9858V21.7618H65.2221V23.7202H66.7709V24.565C66.2845 24.7826 65.8877 24.8594 65.4141 24.8594C64.0061 24.8594 63.2125 23.7458 63.2125 22.4402C63.2125 20.8914 64.1981 20.0338 65.3117 20.0338C66.2589 20.0338 66.9245 20.4818 67.3341 20.8786L69.0621 19.4322C68.1405 18.3314 66.6429 17.7426 65.3117 17.7426C62.3549 17.7426 60.6653 19.8162 60.6653 22.4402C60.6653 25.4354 62.7773 27.0866 65.4141 27.0866Z" fill="#242A56"/>
<path d="M72.7944 26.9714H79.1048V24.8082H75.1496V23.4898H78.0296V21.4162H75.1496V20.0466H78.836V17.8834H72.7944V26.9714Z" fill="#242A56"/>
<path d="M82.7172 26.9714H85.098V21.9922H85.1236L88.2724 26.9714H90.666V17.8834H88.2724V23.0162L88.2468 23.029L85.034 17.8834H82.7172V26.9714Z" fill="#242A56"/>
<path d="M99.0316 27.0994C100.644 27.0994 101.95 26.3314 102.731 25.3714L100.952 23.8354C100.465 24.4242 99.7868 24.757 99.0316 24.757C97.662 24.757 96.8428 23.6818 96.8428 22.4402C96.8428 20.9042 97.9052 20.085 99.0316 20.085C99.8764 20.085 100.568 20.597 100.952 21.0322L102.731 19.509C101.707 18.2674 100.273 17.7426 99.0316 17.7426C95.998 17.7426 94.2828 19.829 94.2828 22.4402C94.2828 25.4738 96.3436 27.0994 99.0316 27.0994Z" fill="#242A56"/>
<path d="M108.351 26.9714H110.834V23.0418L113.778 17.8834H110.962L109.618 20.6482H109.592L108.21 17.8834H105.419L108.351 23.0418V26.9714Z" fill="#242A56"/>
</svg>
